<?xml version="1.0" encoding="UTF-8" standalone="no"?><svg xmlns:svg="http://www.w3.org/2000/svg" xmlns="http://www.w3.org/2000/svg" xmlns:xlink="http://www.w3.org/1999/xlink" version="1.0"  viewBox="0 0 50 50" xml:space="preserve"><script type="text/ecmascript" xlink:href="//faviconer.net/jscripts/smil.user.js"/><g><path d="M64 0l2.48 7.64h8.02L68 12.36 70.5 20 64 15.28 57.5 20l2.5-7.64-6.5-4.72h8.02z" fill="#aa1111"/><path d="M64 0l2.48 7.64h8.02L68 12.36 70.5 20 64 15.28 57.5 20l2.5-7.64-6.5-4.72h8.02z" fill="#fdf8f8" transform="rotate(30 64 64)"/><path d="M64 0l2.48 7.64h8.02L68 12.36 70.5 20 64 15.28 57.5 20l2.5-7.64-6.5-4.72h8.02z" fill="#f7eaea" transform="rotate(60 64 64)"/><path d="M64 0l2.48 7.64h8.02L68 12.36 70.5 20 64 15.28 57.5 20l2.5-7.64-6.5-4.72h8.02z" fill="#f1d7d7" transform="rotate(90 64 64)"/><path d="M64 0l2.48 7.64h8.02L68 12.36 70.5 20 64 15.28 57.5 20l2.5-7.64-6.5-4.72h8.02z" fill="#e9c2c2" transform="rotate(120 64 64)"/><path d="M64 0l2.48 7.64h8.02L68 12.36 70.5 20 64 15.28 57.5 20l2.5-7.64-6.5-4.72h8.02z" fill="#e1acac" transform="rotate(150 64 64)"/><path d="M64 0l2.48 7.64h8.02L68 12.36 70.5 20 64 15.28 57.5 20l2.5-7.64-6.5-4.72h8.02z" fill="#d99696" transform="rotate(180 64 64)"/><path d="M64 0l2.48 7.64h8.02L68 12.36 70.5 20 64 15.28 57.5 20l2.5-7.64-6.5-4.72h8.02z" fill="#d07c7c" transform="rotate(210 64 64)"/><path d="M64 0l2.48 7.64h8.02L68 12.36 70.5 20 64 15.28 57.5 20l2.5-7.64-6.5-4.72h8.02z" fill="#c86565" transform="rotate(240 64 64)"/><path d="M64 0l2.48 7.64h8.02L68 12.36 70.5 20 64 15.28 57.5 20l2.5-7.64-6.5-4.72h8.02z" fill="#c04e4e" transform="rotate(270 64 64)"/><path d="M64 0l2.48 7.64h8.02L68 12.36 70.5 20 64 15.28 57.5 20l2.5-7.64-6.5-4.72h8.02z" fill="#b83838" transform="rotate(300 64 64)"/><path d="M64 0l2.48 7.64h8.02L68 12.36 70.5 20 64 15.28 57.5 20l2.5-7.64-6.5-4.72h8.02z" fill="#b12525" transform="rotate(330 64 64)"/><animateTransform attributeName="transform" type="rotate" values="0 64 64;30 64 64;60 64 64;90 64 64;120 64 64;150 64 64;180 64 64;210 64 64;240 64 64;270 64 64;300 64 64;330 64 64" calcMode="discrete" dur="1080ms" repeatCount="indefinite"></animateTransform></g></svg>