<?xml version="1.0" standalone="no"?><!DOCTYPE svg PUBLIC "-//W3C//DTD SVG 1.1//EN" "http://www.w3.org/Graphics/SVG/1.1/DTD/svg11.dtd"><svg t="1602338117715" class="icon" viewBox="0 0 1024 1024" version="1.1" xmlns="http://www.w3.org/2000/svg" p-id="51900" xmlns:xlink="http://www.w3.org/1999/xlink" width="200" height="200"><defs><style type="text/css"></style></defs><path d="M448 128c-35.296 0-64 28.704-64 64v128H192c-52.928 0-96 43.072-96 96v90.24a207.264 207.264 0 0 0-64 149.76C32 770.688 125.312 864 240 864s208-93.312 208-208a207.36 207.36 0 0 0-5.824-48h139.648A207.36 207.36 0 0 0 576 656c0 114.688 93.312 208 208 208s208-93.312 208-208c0-58.816-24.64-111.872-64-149.76V384c0-35.296-28.704-64-64-64h-110.88l-89.984-135.008A127.712 127.712 0 0 0 556.64 128H448z m0 64h108.64c21.408 0 41.344 10.656 53.248 28.48L676.16 320H448V192z m-256 192h672v80.064A206.72 206.72 0 0 0 784 448a207.904 207.904 0 0 0-175.008 96H415.04A207.904 207.904 0 0 0 240 448c-28.352 0-55.36 5.76-80 16.064V416a32 32 0 0 1 32-32z m48 128c5.536 0 10.816 1.024 16.192 1.6l-1.696 15.264a125.248 125.248 0 0 1 50.304 16.768l7.84-13.248a144.384 144.384 0 0 1 59.104 65.92l-14.432 6.4c7.104 16.128 10.688 33.408 10.688 51.296v0.8l15.936-0.352a142.624 142.624 0 0 1-28.256 84.48l-12.48-9.184c-10.496 14.304-24.224 26.56-39.648 35.392l7.648 13.312A142.272 142.272 0 0 1 240 800c-5.248 0-10.24-1.024-15.36-1.568l1.536-15.168a126.24 126.24 0 0 1-50.432-16.512l-7.68 13.248a144.32 144.32 0 0 1-59.424-65.6l14.368-6.4a126.336 126.336 0 0 1-11.072-51.2l0.128-2.56-16 0.896a142.56 142.56 0 0 1 28.8-84.704l12.384 9.28a129.504 129.504 0 0 1 39.808-35.2L169.6 531.2c20.928-11.872 44.704-19.2 70.432-19.2z m544 0c25.728 0 49.504 7.328 70.432 19.2l-7.488 13.312c15.456 8.768 29.216 20.896 39.808 35.2l12.384-9.28c17.728 23.808 28.608 52.928 28.8 84.768l-15.936 0.8c0 18.112-3.68 35.584-11.008 52l14.4 6.4a144.32 144.32 0 0 1-59.52 65.6l-7.68-13.248a125.6 125.6 0 0 1-50.432 16.512l1.568 15.168c-5.12 0.544-10.08 1.568-15.328 1.568a142.272 142.272 0 0 1-71.2-19.552l7.648-13.312a129.28 129.28 0 0 1-39.648-35.456l-12.48 9.184a142.592 142.592 0 0 1-28.256-84.48l15.936-0.384c0-17.888 3.584-35.168 10.688-51.328l-14.432-6.368a144.384 144.384 0 0 1 59.104-65.92l7.84 13.248a125.088 125.088 0 0 1 50.304-16.768l-1.696-15.232c5.376-0.64 10.656-1.632 16.192-1.632z m-544 96a48 48 0 0 0 0 96 48 48 0 0 0 0-96z m544 0a48 48 0 0 0 0 96 48 48 0 0 0 0-96z" p-id="51901"></path></svg>